IKResults																																											
version=1																																											
nRows=18																																											
nColumns=44																																											
inDegrees=yes																																											
																																											
Units are S.I. units (second, meters, Newtons, ...)																																											
Angles are in degrees.																																											
																																											
endheader																																											
time	ground_spine_rot_x	ground_spine_rot_y	ground_spine_rot_z	ground_spine_tx	ground_spine_ty	ground_spine_tz	clav_prot	clav_elev	scapula_abduction	scapula_elevation	scapula_upward_rot	scapula_winging	plane_elv	shoulder_elv	axial_rot	elbow_flexion	pro_sup	clav_prot_l	clav_elev_l	pitch2	roll2	yaw2	aux7jnt_r3	aux7jnt_r1	aux7jnt_r2	aux6jnt_r3	aux6jnt_r1	aux6jnt_r2	aux5jnt_r3	aux5jnt_r1	aux5jnt_r2	aux4jnt_r3	aux4jnt_r1	aux4jnt_r2	aux3jnt_r3	aux3jnt_r1	aux3jnt_r2	pitch1	roll1	yaw1	aux1jnt_r3	aux1jnt_r1	aux1jnt_r2
1.6	1.17898416	-3.19680138	0.73543798	0.07669886	1.10513821	0.86570909	-32.77897992	21.93085748	-18.18327451	4.86639369	15.09150593	22.9655964	-31.67937761	16.36197235	38.27425482	0	34.32	30.42326055	-1.1607173	0.03400892	-0.09199216	0.01599912	0.36438242	-0.72209381	0.17233623	0.42868415	-0.82751026	0.20075326	0.42868415	-1.13848382	0.20075326	0.32151311	-1.13848382	0.20075326	0.21434207	-1.03307038	0.08616812	-0.22003296	0.01967829	0.03136626	-7.00946624	0.56374138	0.19948454
1.61	1.17750507	-3.26275973	0.74680837	0.07674633	1.10501992	0.86586914	-32.73996551	21.86607347	-18.39202455	4.908648	14.8215066	23.05927146	-29.95386809	16.42060315	36.52139425	0	34.32	30.42326055	-1.1607173	0.03323466	-0.09390463	0.01635168	0.35608681	-0.73710576	0.17613382	0.41892463	-0.84471377	0.20517704	0.41892463	-1.16215231	0.20517704	0.31419347	-1.16215231	0.20517704	0.20946232	-1.05454738	0.08806691	-0.21933986	0.02351656	0.03109809	-6.98738668	0.67369981	0.19777899
1.62	1.17805889	-3.31867278	0.75281228	0.07667746	1.10493578	0.86594767	-32.73135831	21.62907765	-16.92943307	4.25009924	15.84822067	22.50005084	-37.88459114	16.15851356	39.46113809	0	34.32	30.42326055	-1.1607173	0.03183939	-0.09627774	0.01294811	0.34113743	-0.75573354	0.13947193	0.40133717	-0.86606096	0.16246987	0.40133717	-1.19152165	0.16246987	0.30100288	-1.19152165	0.16246987	0.20066858	-1.08119738	0.06973597	-0.21766568	0.02661458	0.03405417	-6.93405328	0.76245147	0.21657917
1.63	1.16477018	-3.40002033	0.74712575	0.07656688	1.10481008	0.86612904	-32.56118007	21.52606023	-16.88363715	4.27965381	15.50079358	22.54228355	-36.41128282	16.20617156	38.88976855	0	34.32	30.42326055	-1.1607173	0.02988889	-0.09326809	0.01414682	0.32023915	-0.73210929	0.15238396	0.37675101	-0.83898788	0.177511	0.37675101	-1.15427466	0.177511	0.28256326	-1.15427466	0.177511	0.18837551	-1.04739913	0.07619198	-0.21499646	0.02322335	0.0310277	-6.84902144	0.66530006	0.19733135
1.64	1.16304677	-3.45013303	0.73382354	0.07649213	1.10467817	0.86622284	-32.88415204	21.37547832	-16.1622128	3.68084433	16.64485286	22.15704548	-42.9118405	15.72799882	46.38123793	0	34.32	30.42326055	-1.1607173	0.0330285	-0.09444394	0.0070949	0.35387794	-0.74133908	0.07642344	0.41632597	-0.8495651	0.08902513	0.41632597	-1.16882674	0.08902513	0.31224448	-1.16882674	0.08902513	0.20816299	-1.06060382	0.03821172	-0.21798894	0.02444292	0.03655541	-6.94435092	0.70023816	0.23248672
1.65	1.14587868	-3.51751644	0.72241726	0.07642864	1.1046097	0.86646205	-32.83154811	21.22477341	-16.2616477	3.62096208	16.40839416	22.20814814	-41.95348268	15.80804354	45.75631224	0	34.32	30.42326055	-1.1607173	0.03367237	-0.09105727	0.00683066	0.36077657	-0.71475544	0.07357722	0.42444198	-0.81910058	0.08570959	0.42444198	-1.12691383	0.08570959	0.31833148	-1.12691383	0.08570959	0.21222099	-1.02257167	0.03678861	-0.21748892	0.01923804	0.03458363	-6.92842233	0.55112931	0.21994648
1.66	1.18569014	-3.56591382	0.80329591	0.07679989	1.10468574	0.86638808	-32.49733224	21.23747878	-16.20341027	3.86792885	15.79210397	22.30219401	-39.56491546	16.06208634	43.84949188	0	34.32	30.42326055	-1.1607173	0.02341637	-0.1002011	0.00858088	0.2508905	-0.78652999	0.09242988	0.29516457	-0.9013533	0.10767092	0.29516457	-1.24007665	0.10767092	0.22137343	-1.24007665	0.10767092	0.14758229	-1.12525662	0.04621494	-0.2072772	0.03043481	0.03207992	-6.60311317	0.87189302	0.20402329
1.67	1.18918359	-3.57724287	0.76500681	0.07660125	1.10454696	0.86643499	-32.89099003	21.20339338	-16.82002324	3.72852425	16.08806841	22.39208746	-39.49663355	15.58358625	43.39032279	0	34.32	30.42326055	-1.1607173	0.03106323	-0.09757113	0.00775561	0.33282136	-0.765886	0.08354042	0.39155358	-0.87769556	0.09731564	0.39155358	-1.20752846	0.09731564	0.29366518	-1.20752846	0.09731564	0.19577679	-1.0957221	0.04177021	-0.21505575	0.02665736	0.03039959	-6.85091005	0.76367703	0.19333665
1.68	1.23894218	-3.62522236	0.83939705	0.07687917	1.10465431	0.86624556	-32.55657508	21.20579087	-16.65526431	3.9366726	15.5448521	22.45003424	-37.55003798	15.8211965	41.87790585	0	34.32	30.42326055	-1.1607173	0.02134111	-0.10742296	0.01011731	0.22865545	-0.84321809	0.10897965	0.26900576	-0.96631714	0.12694962	0.26900576	-1.32945352	0.12694962	0.20175432	-1.32945352	0.12694962	0.13450288	-1.20635799	0.05448982	-0.2052091	0.03938368	0.02865179	-6.53723095	1.1282592	0.18222092
1.69	1.18063022	-3.69893143	0.86043086	0.07692102	1.10465715	0.86672618	-32.64494805	21.11914887	-16.81480576	3.84395387	15.56485839	22.47642878	-37.4071144	15.57251257	41.70183872	0	34.32	30.42326055	-1.1607173	0.01009193	-0.09129202	0.00748022	0.1081282	-0.71659807	0.08057403	0.12720933	-0.82121222	0.09386012	0.12720933	-1.12981901	0.09386012	0.095407	-1.12981901	0.09386012	0.06360467	-1.02520786	0.04028701	-0.18917546	0.01754759	0.02700923	-6.02645633	0.50270133	0.17177449
1.7	1.22165459	-3.74171747	0.79215524	0.07660492	1.1046588	0.8665624	-32.89328384	21.09155869	-16.95554183	3.67261568	15.94435549	22.43920237	-39.06755267	15.33677591	42.29805835	0	34.32	30.42326055	-1.1607173	0.03028831	-0.09669845	0.0086769	0.32451862	-0.75903594	0.09346417	0.38178567	-0.86984548	0.10887575	0.38178567	-1.19672837	0.10887575	0.28633925	-1.19672837	0.10887575	0.19089284	-1.08592201	0.04673208	-0.21451789	0.02566393	0.02747907	-6.83377573	0.73521755	0.1747626
1.71	1.18005689	-3.85089801	0.82403651	0.07668282	1.10474528	0.86701607	-32.61661159	20.98074693	-16.6714337	3.7024273	15.56645466	22.43021678	-37.9341219	15.49634932	41.36680615	0	34.32	30.42326055	-1.1607173	0.02377997	-0.09290904	0.00890754	0.25478624	-0.72929088	0.09594849	0.29974779	-0.83575801	0.11176972	0.29974779	-1.14983103	0.11176972	0.22481084	-1.14983103	0.11176972	0.14987389	-1.04336694	0.04797425	-0.20792923	0.02293282	0.02725786	-6.62388456	0.65697678	0.1733557
1.72	1.22044928	-3.8421472	0.80514146	0.0765781	1.10471634	0.86678874	-32.75275193	21.01590651	-16.99295483	3.72756747	15.60266305	22.50179753	-38.22276227	15.42060835	41.46266427	0	34.32	30.42326055	-1.1607173	0.02808235	-0.09424276	0.00851505	0.30088329	-0.73975997	0.09172074	0.35397948	-0.84775546	0.10684484	0.35397948	-1.16633705	0.10684484	0.26548461	-1.16633705	0.10684484	0.17698974	-1.05834465	0.04586037	-0.21237401	0.02472775	0.0262049	-6.76547948	0.7083978	0.16665908
1.73	1.21166195	-3.89004825	0.86801814	0.0767288	1.10476191	0.86694665	-32.57775424	21.02044624	-16.89693612	3.83760713	15.32566453	22.52961319	-37.35886258	15.45310171	40.99649613	0	34.32	30.42326055	-1.1607173	0.01049493	-0.08691919	0.00734525	0.11244602	-0.6822735	0.07912018	0.13228911	-0.7818767	0.09216653	0.13228911	-1.07570143	0.09216653	0.09921684	-1.07570143	0.09216653	0.06614456	-0.97610109	0.03956009	-0.19043006	0.01511644	0.02456983	-6.06642322	0.43305421	0.15626031
1.74	1.23456296	-3.94602805	0.83057033	0.07660893	1.10471109	0.86691561	-32.97168816	20.87120048	-15.64427006	3.02741508	17.0274614	21.93281927	-48.79541035	15.1883643	51.17462165	0	34.32	30.42326055	-1.1607173	0.0291073	-0.09237325	0.00778879	0.31186491	-0.72508519	0.08389778	0.366899	-0.83093835	0.09773193	0.366899	-1.14320016	0.09773193	0.27517425	-1.14320016	0.09773193	0.1834495	-1.03735003	0.04194889	-0.21428384	0.02519892	0.02766278	-6.82631987	0.72189584	0.17593096
1.75	1.23066264	-3.98680399	0.8362955	0.07655317	1.1047062	0.86704072	-32.81817856	20.89335384	-16.12600631	3.30532735	16.36216733	22.15754938	-44.77752634	15.21753648	47.38210656	0	34.32	30.42326055	-1.1607173	0.02886443	-0.09040939	0.01004604	0.30926271	-0.70966984	0.10821194	0.3638376	-0.81327255	0.12605532	0.3638376	-1.11889566	0.12605532	0.2728782	-1.11889566	0.12605532	0.1819188	-1.01529592	0.05410597	-0.21476261	0.0242945	0.02520028	-6.84157155	0.69598605	0.16026985
1.76	1.25396058	-3.96713795	0.84381689	0.07648051	1.10470494	0.86693711	-32.81259246	20.92370551	-16.2547573	3.37486247	16.26271215	22.20694648	-44.44041658	15.2178685	47.04962663	0	34.32	30.42326055	-1.1607173	0.02725384	-0.08996323	0.00977986	0.29200632	-0.70616768	0.10534483	0.343536	-0.80925912	0.12271545	0.343536	-1.11337401	0.12271545	0.257652	-1.11337401	0.12271545	0.171768	-1.01028552	0.05267242	-0.21367505	0.02406091	0.02449384	-6.80692579	0.68929435	0.15577702
1.77	1.25343873	-4.01535698	0.85048502	0.07641791	1.10467849	0.86704413	-32.73134196	20.91937206	-16.34699349	3.46097299	16.0272725	22.26854116	-43.29172588	15.26506495	45.96061948	0	34.32	30.42326055	-1.1607173	0.02648898	-0.08800787	0.01014978	0.28381146	-0.69081907	0.10932941	0.33389501	-0.79166981	0.12735705	0.33389501	-1.08917473	0.12735705	0.25042126	-1.08917473	0.12735705	0.16694751	-0.98832688	0.0546647	-0.21386086	0.02294436	0.02412862	-6.8128451	0.65730753	0.15345427
